<svg width="98" height="98" viewBox="0 0 98 98" fill="none" xmlns="http://www.w3.org/2000/svg">
<path d="M0 19.7581C0 8.84599 8.84599 0 19.7581 0H78.2419C89.154 0 98 8.84599 98 19.7581V78.2419C98 89.154 89.154 98 78.2419 98H19.7581C8.84599 98 0 89.154 0 78.2419V19.7581Z" fill="url(#paint0_linear)"/>
<path d="M30.083 28.8594L33.5742 39.7412L37.0547 28.8594H42.0176V44.5H38.2363V40.8477L38.6016 33.3711L34.8203 44.5H32.3281L28.5361 33.3604L28.9014 40.8477V44.5H25.1309V28.8594H30.083ZM43.8008 38.5811C43.8008 37.4209 44.0264 36.3896 44.4775 35.4873C44.9287 34.5778 45.5768 33.8796 46.4219 33.3926C47.2669 32.9056 48.2588 32.6621 49.3975 32.6621C51.1377 32.6621 52.5091 33.2028 53.5117 34.2842C54.5143 35.3584 55.0156 36.8229 55.0156 38.6777V38.8066C55.0156 40.6185 54.5107 42.0579 53.501 43.125C52.4984 44.1849 51.1377 44.7148 49.4189 44.7148C47.7646 44.7148 46.4362 44.2207 45.4336 43.2324C44.431 42.237 43.8903 40.8906 43.8115 39.1934L43.8008 38.5811ZM47.4209 38.8066C47.4209 39.8809 47.5892 40.6686 47.9258 41.1699C48.2624 41.6712 48.7601 41.9219 49.4189 41.9219C50.708 41.9219 51.3669 40.93 51.3955 38.9463V38.5811C51.3955 36.4971 50.7295 35.4551 49.3975 35.4551C48.1872 35.4551 47.5319 36.3538 47.4316 38.1514L47.4209 38.8066ZM67.4014 38.7852C67.4014 40.6901 67.0075 42.1546 66.2197 43.1787C65.432 44.2028 64.3219 44.7148 62.8896 44.7148C61.708 44.7148 60.7555 44.2458 60.0322 43.3076L59.8818 44.5H56.6377V28H60.2578V33.8115C60.931 33.0452 61.8011 32.6621 62.8682 32.6621C64.3148 32.6621 65.432 33.1813 66.2197 34.2197C67.0075 35.2581 67.4014 36.7191 67.4014 38.6025V38.7852ZM63.7705 38.5596C63.7705 37.4424 63.6201 36.6475 63.3193 36.1748C63.0257 35.695 62.571 35.4551 61.9551 35.4551C61.1387 35.4551 60.5729 35.7666 60.2578 36.3896V41.0088C60.5658 41.6247 61.1387 41.9326 61.9766 41.9326C62.8288 41.9326 63.3695 41.5173 63.5986 40.6865C63.7132 40.2783 63.7705 39.5693 63.7705 38.5596ZM72.8262 44.5H69.1953V32.877H72.8262V44.5ZM68.9805 29.8799C68.9805 29.3643 69.1667 28.9417 69.5391 28.6123C69.9115 28.2829 70.3949 28.1182 70.9893 28.1182C71.5837 28.1182 72.0671 28.2829 72.4395 28.6123C72.8118 28.9417 72.998 29.3643 72.998 29.8799C72.998 30.3955 72.8118 30.818 72.4395 31.1475C72.0671 31.4769 71.5837 31.6416 70.9893 31.6416C70.3949 31.6416 69.9115 31.4769 69.5391 31.1475C69.1667 30.818 68.9805 30.3955 68.9805 29.8799ZM17.9229 67.5996H24.4863V70.5H14.1523V54.8594H17.9229V67.5996ZM25.4531 64.5811C25.4531 63.4209 25.6787 62.3896 26.1299 61.4873C26.5811 60.5778 27.2292 59.8796 28.0742 59.3926C28.9193 58.9056 29.9111 58.6621 31.0498 58.6621C32.79 58.6621 34.1615 59.2028 35.1641 60.2842C36.1667 61.3584 36.668 62.8229 36.668 64.6777V64.8066C36.668 66.6185 36.1631 68.0579 35.1533 69.125C34.1507 70.1849 32.79 70.7148 31.0713 70.7148C29.417 70.7148 28.0885 70.2207 27.0859 69.2324C26.0833 68.237 25.5426 66.8906 25.4639 65.1934L25.4531 64.5811ZM29.0732 64.8066C29.0732 65.8809 29.2415 66.6686 29.5781 67.1699C29.9147 67.6712 30.4124 67.9219 31.0713 67.9219C32.3604 67.9219 33.0192 66.93 33.0479 64.9463V64.5811C33.0479 62.4971 32.3818 61.4551 31.0498 61.4551C29.8395 61.4551 29.1842 62.3538 29.084 64.1514L29.0732 64.8066ZM42.7373 65.4297L44.6709 58.877H48.5488L43.8115 72.4443L43.6074 72.9385C42.9342 74.4424 41.7454 75.1943 40.041 75.1943C39.5684 75.1943 39.0706 75.1227 38.5479 74.9795V72.3906H39.0205C39.529 72.3906 39.9157 72.3154 40.1807 72.165C40.4528 72.0218 40.6533 71.7604 40.7822 71.3809L41.0723 70.6074L37.0332 58.877H40.9004L42.7373 65.4297ZM55.875 70.5C55.7461 70.2637 55.6315 69.9163 55.5312 69.458C54.8652 70.2959 53.9342 70.7148 52.7383 70.7148C51.6426 70.7148 50.7116 70.3854 49.9453 69.7266C49.179 69.0605 48.7959 68.2262 48.7959 67.2236C48.7959 65.9632 49.2614 65.0107 50.1924 64.3662C51.1234 63.7217 52.4769 63.3994 54.2529 63.3994H55.3701V62.7871C55.3701 61.7201 54.9082 61.1865 53.9844 61.1865C53.125 61.1865 52.6953 61.609 52.6953 62.4541H49.0752C49.0752 61.3298 49.5514 60.4167 50.5039 59.7148C51.4635 59.013 52.6846 58.6621 54.167 58.6621C55.6494 58.6621 56.8203 59.0238 57.6797 59.7471C58.5391 60.4704 58.9795 61.4622 59.001 62.7227V67.8682C59.0153 68.9352 59.18 69.7516 59.4951 70.3174V70.5H55.875ZM53.6084 68.1367C54.0596 68.1367 54.432 68.04 54.7256 67.8467C55.0264 67.6533 55.2412 67.4349 55.3701 67.1914V65.333H54.3174C53.057 65.333 52.4268 65.8988 52.4268 67.0303C52.4268 67.3597 52.5378 67.6283 52.7598 67.8359C52.9818 68.0365 53.2646 68.1367 53.6084 68.1367ZM64.834 70.5H61.2031V54H64.834V70.5ZM71.29 55.9873V58.877H73.2021V61.3906H71.29V66.708C71.29 67.1449 71.3688 67.4492 71.5264 67.6211C71.6839 67.793 71.9954 67.8789 72.4609 67.8789C72.819 67.8789 73.1198 67.8574 73.3633 67.8145V70.4033C72.7116 70.611 72.0312 70.7148 71.3223 70.7148C70.0762 70.7148 69.1559 70.4212 68.5615 69.834C67.9671 69.2467 67.6699 68.3551 67.6699 67.1592V61.3906H66.1875V58.877H67.6699V55.9873H71.29ZM79.2822 65.4297L81.2158 58.877H85.0938L80.3564 72.4443L80.1523 72.9385C79.4792 74.4424 78.2904 75.1943 76.5859 75.1943C76.1133 75.1943 75.6156 75.1227 75.0928 74.9795V72.3906H75.5654C76.0739 72.3906 76.4606 72.3154 76.7256 72.165C76.9977 72.0218 77.1982 71.7604 77.3271 71.3809L77.6172 70.6074L73.5781 58.877H77.4453L79.2822 65.4297Z" fill="white"/>
<defs>
<linearGradient id="paint0_linear" x1="49" y1="0" x2="49" y2="98" gradientUnits="userSpaceOnUse">
<stop stop-color="#F82C2C"/>
<stop offset="1" stop-color="#D90D0D"/>
</linearGradient>
</defs>
</svg>
