<svg width="74" height="75" viewBox="0 0 74 75" fill="none" xmlns="http://www.w3.org/2000/svg">
<circle cx="37" cy="37.2869" r="37" fill="#27AE60"/>
<path d="M22.591 37.9459C21.7123 37.0672 20.2877 37.0672 19.409 37.9459C18.5303 38.8246 18.5303 40.2492 19.409 41.1279L30.659 52.3779C31.5377 53.2565 32.9623 53.2565 33.841 52.3779L58.591 27.6279C59.4697 26.7492 59.4697 25.3246 58.591 24.4459C57.7123 23.5672 56.2877 23.5672 55.409 24.4459L32.25 47.6049L22.591 37.9459Z" fill="white"/>
<mask id="mask0" mask-type="alpha" maskUnits="userSpaceOnUse" x="18" y="23" width="42" height="31">
<path d="M22.591 37.9459C21.7123 37.0672 20.2877 37.0672 19.409 37.9459C18.5303 38.8246 18.5303 40.2492 19.409 41.1279L30.659 52.3779C31.5377 53.2565 32.9623 53.2565 33.841 52.3779L58.591 27.6279C59.4697 26.7492 59.4697 25.3246 58.591 24.4459C57.7123 23.5672 56.2877 23.5672 55.409 24.4459L32.25 47.6049L22.591 37.9459Z" fill="white"/>
</mask>
<g mask="url(#mask0)">
<rect x="12" y="10.2869" width="54" height="54" fill="white"/>
</g>
</svg>
